<?xml version="1.0" encoding="iso-8859-1"?>
<!-- Generator: Adobe Illustrator 19.0.0, SVG Export Plug-In . SVG Version: 6.00 Build 0)  -->
<svg version="1.1" id="Capa_1" xmlns="http://www.w3.org/2000/svg" xmlns:xlink="http://www.w3.org/1999/xlink" x="0px" y="0px"
	 viewBox="0 0 430.655 430.655" style="enable-background:new 0 0 430.655 430.655;" xml:space="preserve">
<g>
	<g>
		<g>
			<path d="M429.644,272.719l-21.368-123.448c-7.968-46.115-51.81-77.04-97.925-69.072c-3.806,0.658-7.562,1.575-11.243,2.744
				c-16.757,5.266-31.435,15.665-41.96,29.728c-27.398,6.498-55.92,6.646-83.384,0.432c-10.536-14.271-25.328-24.832-42.248-30.16
				l-0.336-0.096c-44.645-13.988-92.177,10.865-106.164,55.51c-1.118,3.568-1.998,7.206-2.635,10.89L0.996,272.703
				c-6.345,36.738,18.294,71.663,55.031,78.007c3.81,0.658,7.67,0.987,11.537,0.985c23.405,0.008,45.129-12.163,57.344-32.128
				l24.8-15.928c39.546-25.345,90.23-25.345,129.776,0l27.112,17.408c20.335,31.226,62.133,40.056,93.36,19.721
				c4.863-3.167,9.297-6.948,13.192-11.249C427.145,314.161,433.237,293.185,429.644,272.719z M371.873,334.939
				c-6.631,1.146-13.422,0.982-19.989-0.484c-13.6-3.06-25.388-11.484-32.688-23.36c-0.627-1.027-1.477-1.899-2.488-2.552
				l-28.568-18.4c-44.818-28.74-102.27-28.74-147.088,0l-26.36,16.944c-1.074,0.69-1.965,1.629-2.6,2.736
				c-14.181,24.632-45.646,33.104-70.278,18.923c-18.701-10.767-28.699-32.056-25.042-53.323l21.336-123.432
				c3.38-19.567,15.061-36.715,32.032-47.024h-0.016c16.972-10.314,37.578-12.779,56.504-6.76l0.296,0.088
				c14.442,4.615,26.927,13.924,35.472,26.448c1.111,1.622,2.779,2.778,4.688,3.248c31.822,7.748,65.058,7.58,96.8-0.488
				c1.87-0.47,3.503-1.608,4.592-3.2c8.602-12.411,21.095-21.602,35.504-26.12c36.169-11.499,74.812,8.501,86.31,44.67
				c0.949,2.984,1.692,6.029,2.226,9.114l21.328,123.456C418.689,303.448,399.898,330.094,371.873,334.939z"/>
			<path d="M358.596,174.943c-13.255,0-24,10.745-24,24s10.745,24,24,24s24-10.745,24-24S371.851,174.943,358.596,174.943z
				 M358.596,206.943c-4.418,0-8-3.582-8-8s3.582-8,8-8s8,3.582,8,8S363.014,206.943,358.596,206.943z"/>
			<path d="M302.596,198.943c0-13.255-10.745-24-24-24s-24,10.745-24,24s10.745,24,24,24S302.596,212.198,302.596,198.943z
				 M278.596,206.943c-4.418,0-8-3.582-8-8s3.582-8,8-8s8,3.582,8,8S283.014,206.943,278.596,206.943z"/>
			<path d="M318.596,182.943c13.255,0,24-10.745,24-24s-10.745-24-24-24s-24,10.745-24,24S305.341,182.943,318.596,182.943z
				 M318.596,150.943c4.418,0,8,3.582,8,8s-3.582,8-8,8s-8-3.582-8-8S314.177,150.943,318.596,150.943z"/>
			<path d="M318.596,214.943c-13.255,0-24,10.745-24,24s10.745,24,24,24s24-10.745,24-24S331.851,214.943,318.596,214.943z
				 M318.596,246.943c-4.418,0-8-3.582-8-8s3.582-8,8-8s8,3.582,8,8S323.014,246.943,318.596,246.943z"/>
			<path d="M198.596,238.943h-16c-4.418,0-8,3.582-8,8s3.582,8,8,8h16c4.418,0,8-3.582,8-8S203.014,238.943,198.596,238.943z"/>
			<path d="M246.596,238.943h-16c-4.418,0-8,3.582-8,8s3.582,8,8,8h16c4.418,0,8-3.582,8-8S251.014,238.943,246.596,238.943z"/>
			<path d="M158.596,174.943h-16v-16c0-4.418-3.582-8-8-8h-32c-4.418,0-8,3.582-8,8v16h-16c-4.418,0-8,3.582-8,8v32
				c0,4.418,3.582,8,8,8h16v16c0,4.418,3.582,8,8,8h32c4.418,0,8-3.582,8-8v-16h16c4.418,0,8-3.582,8-8v-32
				C166.596,178.525,163.014,174.943,158.596,174.943z M150.596,206.943h-16c-4.418,0-8,3.582-8,8v16h-16v-16c0-4.418-3.582-8-8-8
				h-16v-16h16c4.418,0,8-3.582,8-8v-16h16v16c0,4.418,3.582,8,8,8h16V206.943z"/>
		</g>
	</g>
</g>
<g>
</g>
<g>
</g>
<g>
</g>
<g>
</g>
<g>
</g>
<g>
</g>
<g>
</g>
<g>
</g>
<g>
</g>
<g>
</g>
<g>
</g>
<g>
</g>
<g>
</g>
<g>
</g>
<g>
</g>
</svg>
